<svg width="53" height="32" viewBox="0 0 53 32" fill="none" xmlns="http://www.w3.org/2000/svg">
<path fill-rule="evenodd" clip-rule="evenodd" d="M26.6103 27.8515C29.499 30.5248 33.2837 32.006 37.2103 31.9999C41.4094 31.9666 45.4252 30.2664 48.3827 27.2699C51.3403 24.2734 52.9999 20.2234 52.9999 16.0024C52.9999 11.7814 51.3403 7.73136 48.3827 4.73487C45.4252 1.73837 41.4094 0.0382433 37.2103 0.00490554C33.284 -0.00180684 29.4993 1.47867 26.6103 4.15135C24.9669 5.65197 23.6537 7.48142 22.7551 9.52223C21.8565 11.563 21.3923 13.7701 21.3923 16.0019C21.3923 18.2337 21.8565 20.4408 22.7551 22.4816C23.6537 24.5225 24.9669 26.3519 26.6103 27.8525V27.8515Z" fill="#E99F2B"/>
<path fill-rule="evenodd" clip-rule="evenodd" d="M50.9258 24.9127C50.9256 24.8479 50.938 24.7837 50.9626 24.7238C50.9872 24.6638 51.0233 24.6094 51.0689 24.5635C51.1145 24.5177 51.1686 24.4814 51.2282 24.4568C51.2879 24.4321 51.3518 24.4195 51.4162 24.4197C51.4828 24.4166 51.5494 24.4271 51.6118 24.4504C51.6743 24.4737 51.7315 24.5094 51.78 24.5554C51.8284 24.6014 51.8672 24.6568 51.8939 24.7182C51.9206 24.7796 51.9347 24.8457 51.9355 24.9127C51.9378 24.9819 51.926 25.0509 51.9008 25.1152C51.8755 25.1796 51.8373 25.2381 51.7886 25.287C51.7399 25.336 51.6818 25.3744 51.6177 25.3998C51.5536 25.4251 51.4851 25.437 51.4162 25.4347C51.3496 25.4339 51.2838 25.4197 51.2227 25.3928C51.1616 25.366 51.1066 25.327 51.0608 25.2783C51.0151 25.2296 50.9795 25.1722 50.9563 25.1093C50.9331 25.0465 50.9228 24.9797 50.9258 24.9127ZM51.4162 25.3259C51.5242 25.3231 51.6269 25.2786 51.7031 25.2016C51.7793 25.1247 51.823 25.0212 51.8253 24.9127C51.8214 24.8074 51.7762 24.7078 51.6996 24.6358C51.623 24.5638 51.5211 24.5253 51.4162 24.5285C51.3156 24.5308 51.2197 24.572 51.1485 24.6436C51.0773 24.7151 51.0363 24.8115 51.034 24.9127C51.0354 25.017 51.0753 25.117 51.1459 25.1934C51.2165 25.2698 51.3129 25.317 51.4162 25.3259ZM51.3616 25.1612H51.2534V24.6931H51.4431C51.4818 24.6887 51.5208 24.6983 51.5532 24.7201C51.6069 24.7471 51.6069 24.776 51.6069 24.8309C51.6069 24.8857 51.5801 24.9417 51.5255 24.9417L51.6357 25.1612H51.4987L51.4431 24.9686H51.3616V24.8848H51.4689C51.4957 24.8848 51.4957 24.8578 51.4957 24.8309C51.4957 24.8039 51.4957 24.804 51.4689 24.777H51.3587L51.3616 25.1612Z" fill="#E99F2B"/>
<path fill-rule="evenodd" clip-rule="evenodd" d="M31.7193 14.3115C31.6637 13.7347 31.5555 13.1859 31.4453 12.6091H21.7746C21.8905 12.0431 22.0363 11.4838 22.2114 10.9335H30.9827C30.7914 10.3547 30.5726 9.78719 30.3264 9.231H22.8954C23.1674 8.64887 23.4679 8.08138 23.7969 7.52852H29.3972C29.0382 6.94111 28.6367 6.38106 28.1959 5.85296H24.9971C25.4917 5.24536 26.0306 4.67561 26.6094 4.14846C24.3266 2.06717 21.4918 0.696836 18.4491 0.203865C15.4064 -0.289107 12.2868 0.11651 9.46907 1.37141C6.6513 2.62631 4.25657 4.6765 2.57568 7.27313C0.894781 9.86975 0 12.9011 0 15.999C0 19.097 0.894781 22.1283 2.57568 24.7249C4.25657 27.3216 6.6513 29.3718 9.46907 30.6267C12.2868 31.8816 15.4064 32.2871 18.4491 31.7942C21.4918 31.3012 24.3266 29.9309 26.6094 27.8496C27.1802 27.3322 27.7112 26.7721 28.1979 26.174H24.9971C24.5663 25.6289 24.1653 25.0606 23.7959 24.4716H29.3962C29.7487 23.9287 30.0593 23.3596 30.3254 22.7691H22.8944C22.6375 22.2223 22.4091 21.6624 22.2104 21.0916H30.9817C31.165 20.5324 31.3197 19.9642 31.4453 19.3891C31.6863 18.2799 31.8055 17.1474 31.8007 16.012C31.8007 15.4352 31.7739 14.8584 31.7193 14.3095V14.3115Z" fill="#BF0C24"/>
<path fill-rule="evenodd" clip-rule="evenodd" d="M50.9257 19.7212C50.9229 19.6544 50.9335 19.5878 50.9568 19.5252C50.9801 19.4626 51.0157 19.4054 51.0615 19.3569C51.1072 19.3084 51.1622 19.2697 51.2231 19.2429C51.284 19.2162 51.3497 19.202 51.4162 19.2013C51.4848 19.1988 51.5533 19.2105 51.6173 19.2357C51.6813 19.261 51.7394 19.2991 51.7881 19.3479C51.8368 19.3966 51.875 19.4549 51.9004 19.5191C51.9257 19.5834 51.9376 19.6521 51.9354 19.7212C51.9355 19.7898 51.9222 19.8577 51.8961 19.9211C51.8701 19.9845 51.8318 20.0421 51.7836 20.0905C51.7354 20.139 51.6781 20.1775 51.615 20.2037C51.552 20.2298 51.4844 20.2433 51.4162 20.2431C51.2829 20.2374 51.1571 20.1797 51.0656 20.0823C50.974 19.9848 50.9238 19.8552 50.9257 19.7212ZM51.4162 20.1054C51.4687 20.1092 51.5214 20.1021 51.5711 20.0845C51.6207 20.0669 51.6662 20.0393 51.7048 20.0032C51.7433 19.9672 51.7741 19.9235 51.7951 19.875C51.8161 19.8265 51.827 19.7741 51.827 19.7212C51.827 19.6683 51.8161 19.6159 51.7951 19.5674C51.7741 19.5189 51.7433 19.4752 51.7048 19.4392C51.6662 19.4031 51.6207 19.3754 51.5711 19.3579C51.5214 19.3403 51.4687 19.3332 51.4162 19.337C51.3148 19.337 51.2176 19.3775 51.1459 19.4495C51.0742 19.5216 51.034 19.6193 51.034 19.7212C51.034 19.8231 51.0742 19.9208 51.1459 19.9928C51.2176 20.0649 51.3148 20.1054 51.4162 20.1054ZM51.3616 19.9408H51.2533V19.5017H51.5512C51.6048 19.5286 51.6048 19.5855 51.6048 19.6394C51.6009 19.663 51.5915 19.6853 51.5773 19.7046C51.5632 19.7238 51.5447 19.7394 51.5234 19.7501L51.6336 19.9427H51.4966L51.441 19.7781H51.3596V19.6943H51.4142C51.441 19.6943 51.4698 19.6942 51.4698 19.6673C51.4966 19.6673 51.4966 19.6403 51.4966 19.6124C51.4966 19.6053 51.4937 19.5984 51.4887 19.5933C51.4837 19.5883 51.4769 19.5855 51.4698 19.5855C51.4698 19.5565 51.441 19.5855 51.4142 19.5855H51.3596L51.3616 19.9408Z" fill="white"/>
<path fill-rule="evenodd" clip-rule="evenodd" d="M21.2274 20.6254C20.8105 20.7544 20.3786 20.8282 19.9427 20.8449C19.1217 20.8449 18.6312 20.325 18.6312 19.3889C18.6372 19.1885 18.6551 18.9885 18.6849 18.7901L18.7951 18.1595L18.8765 17.6376L19.6141 13.1338H21.2532L21.0616 14.1218H22.101L21.8538 15.7694H20.8154L20.3785 18.4639C20.3598 18.5538 20.3508 18.6454 20.3517 18.7373C20.3517 19.0945 20.5155 19.2362 20.9256 19.2362C21.1 19.2335 21.2738 19.2147 21.4448 19.1803L21.2274 20.6254ZM26.5279 20.5715C25.9588 20.734 25.3702 20.8169 24.7786 20.818C24.3832 20.8665 23.9821 20.8239 23.6055 20.6935C23.229 20.563 22.8869 20.3482 22.6052 20.0652C22.3234 19.7822 22.1095 19.4385 21.9795 19.0601C21.8495 18.6817 21.8069 18.2784 21.8548 17.881C21.8548 15.6007 23.1117 13.9521 24.86 13.9521C25.1731 13.9347 25.4862 13.9852 25.7781 14.1002C26.07 14.2152 26.3339 14.3921 26.5517 14.6187C26.7696 14.8454 26.9364 15.1166 27.0407 15.4138C27.145 15.711 27.1844 16.0273 27.1563 16.3412C27.15 16.8867 27.0858 17.4301 26.9647 17.9619H23.5485C23.5292 18.0334 23.5202 18.1073 23.5217 18.1814C23.5217 18.9498 24.041 19.3341 25.0238 19.3341C25.639 19.3327 26.2461 19.1922 26.7999 18.9229L26.5279 20.5715ZM25.5162 16.6446V16.3143C25.5304 16.2015 25.5191 16.0869 25.4834 15.979C25.4477 15.8712 25.3883 15.7728 25.3097 15.691C25.2311 15.6092 25.1353 15.5462 25.0293 15.5066C24.9233 15.4669 24.8098 15.4518 24.6972 15.462C24.1511 15.462 23.7679 15.8732 23.6051 16.6446H25.5162ZM8.11366 20.7092H6.41798L7.40282 14.474L5.1899 20.7092H4.01545L3.87844 14.502L2.84 20.7092H1.1731L2.51136 12.6069H4.9983L5.05192 17.6056L6.7188 12.6069H9.45096L8.11366 20.7092ZM12.2387 17.7703C12.1304 17.7499 12.0203 17.7408 11.9101 17.7433C10.9272 17.7433 10.4348 18.1276 10.4348 18.7313C10.4258 18.8191 10.4354 18.9078 10.4631 18.9916C10.4908 19.0754 10.5359 19.1524 10.5954 19.2173C10.655 19.2822 10.7276 19.3337 10.8084 19.3682C10.8892 19.4028 10.9764 19.4198 11.0642 19.4179C11.8833 19.4209 12.2109 18.7293 12.2387 17.7723V17.7703ZM13.6058 20.7092H12.1305L12.1573 20.0216C11.9507 20.2998 11.676 20.5196 11.3599 20.6595C11.0438 20.7994 10.6971 20.8547 10.3534 20.82C10.1337 20.804 9.91938 20.7443 9.72297 20.6441C9.52656 20.5438 9.35202 20.4052 9.20955 20.2364C9.06708 20.0675 8.95956 19.8718 8.89328 19.6607C8.82699 19.4495 8.80326 19.2272 8.8235 19.0067C8.82675 18.7182 8.87226 18.4317 8.95854 18.1564C9.23255 17.1395 10.2422 16.5089 11.8009 16.4809C11.9925 16.4809 12.2913 16.4809 12.5653 16.5079C12.6056 16.3651 12.624 16.2171 12.6199 16.0688C12.6199 15.6277 12.2645 15.4899 11.4733 15.4899C10.9907 15.4875 10.5108 15.5623 10.0516 15.7115L9.80638 15.7664L9.69616 15.7933L9.94339 14.3104C10.5853 14.086 11.2585 13.9655 11.9379 13.9531C13.4112 13.9531 14.2054 14.6407 14.2054 15.9041C14.2224 16.336 14.1945 16.7684 14.122 17.1944L13.7398 19.5546L13.6862 19.9677L13.6594 20.298L13.6326 20.5176L13.6058 20.7092ZM34.7779 14.1717C35.3165 14.1903 35.8422 14.3418 36.3088 14.6128L36.6066 12.8544C36.4642 12.7914 36.3184 12.7364 36.1698 12.6897L35.4858 12.4971C34.5967 12.3308 33.6791 12.4168 32.836 12.7456C32.462 12.9921 32.1219 13.2871 31.8244 13.6228L31.606 13.5679L29.8587 14.8044L29.9401 14.1168H28.1362L27.0719 20.7032H28.7924L29.4199 17.1625C29.4199 17.1625 29.6671 16.6635 29.7753 16.5029C29.8812 16.3522 30.0267 16.234 30.1955 16.1614C30.3642 16.0888 30.5497 16.0647 30.7313 16.0917H30.8683C30.8113 16.5097 30.7841 16.9312 30.7869 17.3531C30.7869 19.4957 31.9882 20.8459 33.8457 20.8459C34.3547 20.8427 34.8609 20.7689 35.3498 20.6264L35.6476 18.7592C35.2089 19.025 34.7109 19.176 34.1991 19.1983C33.1895 19.1983 32.5888 18.4299 32.5888 17.2224C32.5918 15.4361 33.4933 14.1737 34.7779 14.1737V14.1717ZM49.2865 12.6069L48.9043 14.9131C48.7522 14.6309 48.5271 14.3952 48.2527 14.2309C47.9784 14.0667 47.6649 13.98 47.3456 13.98C46.8653 13.9946 46.3985 14.1437 45.9979 14.4104C45.5973 14.6772 45.2788 15.051 45.0781 15.4899V15.463L43.986 14.8054L44.0962 14.1178H42.2655L41.2271 20.7102H42.9208L43.4946 17.1675C43.4946 17.1675 43.9334 16.6685 44.0406 16.5079C44.1323 16.3894 44.2478 16.2916 44.3795 16.2207C44.5111 16.1499 44.6561 16.1077 44.8051 16.0967C44.5993 16.7254 44.4987 17.384 44.5072 18.0457C44.5072 19.6933 45.3531 20.7921 46.61 20.7921C46.9135 20.7988 47.2145 20.7354 47.4899 20.6068C47.7653 20.4783 48.0077 20.288 48.1984 20.0506L48.115 20.7102H49.7273L51.0388 12.6079L49.2865 12.6069ZM47.1818 19.1424C46.608 19.1424 46.3092 18.7033 46.3092 17.8521C46.3092 16.5607 46.8552 15.6277 47.6474 15.6277C48.2431 15.6277 48.5489 16.0957 48.5489 16.918C48.5479 18.2383 48.0018 19.1454 47.1808 19.1454L47.1818 19.1424ZM39.2872 17.7703C39.1788 17.7499 39.0687 17.7408 38.9585 17.7433C37.9737 17.7433 37.4833 18.1276 37.4833 18.7313C37.4741 18.819 37.4836 18.9076 37.5111 18.9913C37.5386 19.075 37.5836 19.1519 37.6429 19.2169C37.7022 19.2818 37.7746 19.3333 37.8553 19.3679C37.936 19.4026 38.023 19.4196 38.1107 19.4179C38.9317 19.4209 39.2594 18.7293 39.2872 17.7723V17.7703ZM40.6522 20.7092H39.1501L39.2077 20.0266C39.0015 20.3047 38.7271 20.5243 38.4113 20.6642C38.0956 20.8041 37.7492 20.8595 37.4058 20.825C37.1814 20.8157 36.9612 20.7608 36.7584 20.6636C36.5557 20.5664 36.3746 20.429 36.2262 20.2595C36.0777 20.0901 35.965 19.8921 35.8947 19.6777C35.8245 19.4632 35.7981 19.2366 35.8174 19.0117C35.8174 17.4469 36.9918 16.4859 38.8494 16.4859C39.0955 16.4823 39.3417 16.4913 39.587 16.5129C39.6346 16.371 39.6626 16.2233 39.6704 16.0738C39.6704 15.6327 39.3149 15.4969 38.4959 15.4969C38.0136 15.496 37.534 15.5701 37.0743 15.7165L36.8558 15.7714L36.7456 15.7983L36.9908 14.3154C37.6328 14.0914 38.3059 13.9708 38.9854 13.9581C40.4606 13.9581 41.2251 14.6457 41.2251 15.9091C41.2573 16.3409 41.2299 16.7752 41.1437 17.1994L40.7883 19.5616L40.7346 19.9727L40.679 20.303L40.6522 20.5226V20.7152V20.7092ZM17.1838 15.5199C17.6138 15.5222 18.0431 15.5586 18.4674 15.6287L18.7126 14.0908C18.2222 14.037 17.566 13.9531 17.1828 13.9531C15.2707 13.9531 14.6412 14.998 14.6412 16.2045C14.6348 16.605 14.756 16.997 14.9871 17.3233C15.2183 17.6496 15.5473 17.8929 15.9259 18.0178C16.6099 18.3481 16.7201 18.402 16.7201 18.7054C16.7201 19.1165 16.3667 19.363 15.7105 19.363C15.1791 19.3636 14.6516 19.271 14.1518 19.0895L13.9602 20.5994L13.987 20.6264L14.3156 20.6813C14.4604 20.7167 14.6068 20.7447 14.7544 20.7651C15.1634 20.792 15.5189 20.819 15.7373 20.819C17.6494 20.819 18.4426 20.0775 18.4426 18.6235C18.4547 18.2187 18.336 17.8209 18.1045 17.4896C17.8729 17.1583 17.5408 16.9112 17.158 16.7853C16.4203 16.455 16.3369 16.4011 16.3369 16.0977C16.3369 15.7943 16.6645 15.5209 17.1838 15.5209V15.5199Z" fill="#082C5C"/>
<path fill-rule="evenodd" clip-rule="evenodd" d="M37.0783 12.3335L36.7804 14.0919C36.3141 13.8214 35.7887 13.6706 35.2506 13.6528C33.9659 13.6528 33.0664 14.9142 33.0664 16.7005C33.0664 17.937 33.6621 18.6784 34.6787 18.6784C35.1856 18.653 35.6801 18.5124 36.1252 18.2673L35.8274 20.1055C35.34 20.2555 34.8348 20.339 34.3253 20.3539C32.4678 20.3539 31.3181 19.0068 31.3181 16.8382C31.3181 13.9532 32.9066 11.9214 35.1702 11.9214C35.4373 11.9167 35.704 11.9448 35.9644 12.0052L36.6484 12.1699C36.8688 12.2517 36.9224 12.2787 37.0872 12.3325L37.0783 12.3335ZM31.5594 13.5431H31.3956C30.8218 13.5431 30.4941 13.8185 29.9739 14.6148L30.1377 13.5979H28.579L27.5148 20.1903H29.2353C29.8647 16.1527 30.0295 15.4661 30.8476 15.4661H30.9578C31.0835 14.8056 31.3038 14.1669 31.612 13.57L31.5594 13.5431ZM21.6683 20.1055C21.2752 20.2519 20.8594 20.3269 20.4402 20.327C20.2491 20.3448 20.0565 20.3186 19.8769 20.2504C19.6974 20.1823 19.5356 20.074 19.4039 19.9337C19.2722 19.7934 19.1739 19.6248 19.1166 19.4407C19.0593 19.2566 19.0444 19.0618 19.0731 18.871C19.0791 18.6778 19.0974 18.4851 19.1277 18.2942L19.2379 17.6346L19.3213 17.1147L20.057 12.609H21.7526L21.561 13.5969H22.4337L22.2153 15.2176H21.3406L20.877 17.9639C20.856 18.0541 20.847 18.1467 20.8502 18.2393C20.8502 18.5677 21.014 18.7054 21.424 18.7054C21.5807 18.7194 21.7386 18.7007 21.8877 18.6505L21.6693 20.1044L21.6683 20.1055ZM15.0851 15.6856C15.08 16.0888 15.2011 16.4834 15.4312 16.8136C15.6614 17.1438 15.9891 17.393 16.3678 17.5258C17.0786 17.8541 17.1888 17.9649 17.1888 18.2383C17.1888 18.6515 16.891 18.8441 16.204 18.8441C15.6844 18.84 15.1685 18.7562 14.6741 18.5956L14.4289 20.1055L14.5103 20.1344L14.8081 20.1893C14.9597 20.2276 15.1155 20.2457 15.2718 20.2432C15.5797 20.2853 15.8903 20.304 16.201 20.2991C18.0049 20.2991 18.8527 19.6115 18.8527 18.1036C18.8787 17.7071 18.7752 17.3128 18.5581 16.9807C18.3409 16.6486 18.0219 16.3967 17.6495 16.2634C16.9118 15.9331 16.8304 15.8523 16.8304 15.5489C16.8304 15.1917 17.1282 15.027 17.6782 15.027C18.0889 15.0304 18.499 15.0584 18.9063 15.1108L19.1536 13.6009C18.6565 13.5161 18.1536 13.47 17.6495 13.4632C15.7334 13.4622 15.0523 14.4771 15.0811 15.6866L15.0851 15.6856ZM50.1652 20.1893H48.5529L48.6343 19.5566C48.4389 19.7854 48.1956 19.9681 47.9219 20.0916C47.6482 20.2151 47.3508 20.2764 47.0508 20.2712C45.7939 20.2712 44.9729 19.2013 44.9729 17.5538C44.9729 15.3583 46.2566 13.4892 47.7597 13.4892C48.0867 13.4908 48.408 13.5746 48.6946 13.7328C48.9812 13.8911 49.2239 14.1188 49.4007 14.3953L49.783 12.087H51.4737L50.1622 20.1893H50.1652ZM47.6505 18.6515C48.4447 18.6515 48.9887 17.7174 48.9887 16.4271C48.9887 15.5748 48.6909 15.1297 48.0873 15.1297C47.3228 15.1297 46.749 16.0359 46.749 17.3252C46.7464 18.2094 47.0459 18.6518 47.6475 18.6525L47.6505 18.6515ZM26.9141 20.0486C26.3406 20.2355 25.7409 20.3285 25.1381 20.324C23.224 20.324 22.2411 19.3071 22.2411 17.3582C22.2411 15.1048 23.498 13.4293 25.2195 13.4293C25.5342 13.4098 25.8494 13.4587 26.1437 13.5727C26.4379 13.6866 26.7044 13.8629 26.9248 14.0895C27.1452 14.3162 27.3145 14.588 27.4211 14.8863C27.5277 15.1846 27.5691 15.5025 27.5426 15.8183C27.5379 16.3745 27.4645 16.9279 27.3242 17.4659H23.9348C23.9145 17.528 23.9054 17.5932 23.908 17.6585C23.908 18.4289 24.4272 18.8132 25.4101 18.8132C26.0269 18.8244 26.6369 18.6825 27.1862 18.4L26.9141 20.0486ZM25.9561 16.1217V15.7944C25.9703 15.6817 25.9591 15.5672 25.9233 15.4594C25.8876 15.3516 25.8282 15.2533 25.7496 15.1716C25.671 15.09 25.5751 15.0272 25.4691 14.9878C25.3631 14.9484 25.2496 14.9335 25.137 14.9442C24.591 14.9442 24.2078 15.3553 24.045 16.1247L25.9561 16.1217ZM8.55058 20.1853H6.85689L7.83974 13.9502L5.62685 20.1853H4.45237L4.31536 14.0071L3.27789 20.1853H1.68945L3.02772 12.0831H5.48784L5.56925 17.1087L7.20834 12.0831H9.88887L8.55058 20.1853ZM12.7858 17.2464C12.622 17.2464 12.5406 17.2194 12.4036 17.2194C11.4475 17.2194 10.9551 17.5767 10.9551 18.2344C10.9432 18.3186 10.9499 18.4044 10.9748 18.4857C10.9996 18.567 11.042 18.6418 11.0988 18.7048C11.1557 18.7677 11.2257 18.8174 11.3038 18.8501C11.3819 18.8828 11.4662 18.8978 11.5508 18.894C12.2666 18.899 12.755 18.2383 12.7858 17.2504V17.2464ZM14.0456 20.1853H12.624L12.6508 19.4977C12.4365 19.7672 12.1605 19.9805 11.8464 20.1196C11.5322 20.2586 11.1894 20.3191 10.8469 20.2961C10.6242 20.2932 10.4046 20.2432 10.2024 20.1495C10.0001 20.0557 9.81977 19.9203 9.67297 19.752C9.52618 19.5836 9.41625 19.3861 9.35031 19.1723C9.28437 18.9585 9.26387 18.7331 9.2902 18.5108C9.2902 16.8901 10.3823 15.956 12.2954 15.956C12.487 15.956 12.7342 15.983 13.0062 16.0109C13.0443 15.8773 13.0624 15.7387 13.0598 15.5998C13.0598 15.1607 12.762 15.001 11.9678 15.001C11.4895 14.9947 11.0124 15.05 10.5481 15.1657L10.3009 15.2475L10.1371 15.2765L10.3843 13.7935C11.0465 13.579 11.7376 13.4676 12.4334 13.4632C13.9087 13.4632 14.7009 14.1209 14.7009 15.3853C14.6906 15.8277 14.6448 16.2685 14.5639 16.7035L14.1817 19.0387L14.1271 19.4499L14.1002 19.7802L14.0735 20.0267L14.0466 20.1913L14.0456 20.1853ZM39.8372 17.2464C39.6456 17.2464 39.5632 17.2194 39.455 17.2194C38.4702 17.2194 37.9778 17.5767 37.9778 18.2344C37.9688 18.3209 37.9787 18.4083 38.0068 18.4906C38.0348 18.5729 38.0804 18.6481 38.1403 18.7108C38.2002 18.7736 38.273 18.8225 38.3537 18.8542C38.4343 18.8858 38.5208 18.8994 38.6072 18.894C39.2912 18.894 39.8084 18.2344 39.8372 17.2464ZM41.0941 20.1853H39.6724L39.6992 19.4977C39.4848 19.7671 39.2088 19.9803 38.8947 20.1193C38.5806 20.2583 38.2378 20.319 37.8954 20.2961C37.6727 20.2932 37.4531 20.2432 37.2508 20.1495C37.0486 20.0557 36.8682 19.9203 36.7214 19.752C36.5746 19.5836 36.4647 19.3861 36.3988 19.1723C36.3328 18.9585 36.3123 18.7331 36.3387 18.5108C36.3387 16.8901 37.4307 15.956 39.3438 15.956C39.5354 15.956 39.7807 15.983 40.0279 16.0109C40.0713 15.8776 40.0986 15.7396 40.1093 15.5998C40.1093 15.1607 39.8114 15.001 39.0172 15.001C38.5301 14.9948 38.0441 15.0501 37.5707 15.1657L37.3503 15.2475L37.1865 15.2765L37.4337 13.7935C38.096 13.579 38.787 13.4676 39.4828 13.4632C40.9581 13.4632 41.7226 14.1209 41.7226 15.3853C41.7265 15.8285 41.6805 16.2707 41.5855 16.7035L41.2301 19.0387L41.1765 19.4499L41.1219 19.7802L41.0951 20.0267V20.1913L41.0941 20.1853ZM45.6828 13.539H45.517C44.9451 13.539 44.6175 13.8145 44.0973 14.6109L44.2611 13.5939H42.7024L41.664 20.1863H43.3596C43.9871 16.1487 44.1539 15.4621 44.9719 15.4621H45.0801C45.2056 14.8012 45.4267 14.1624 45.7364 13.566L45.6828 13.539Z" fill="white"/>
</svg>
