<svg width="55" height="16" viewBox="0 0 55 16" fill="none" xmlns="http://www.w3.org/2000/svg">
<path d="M10.4473 8.24151L8.93656 1.39011C8.82708 0.992881 8.56961 0.646367 8.21147 0.414266C7.85334 0.182165 7.41862 0.0800903 6.98723 0.126791H0.0610828L0 0.439826C5.39466 1.67613 8.96316 4.65929 10.4473 8.24151Z" fill="#F68A0A"/>
<path d="M26.4981 0.264893H22.0229L19.228 15.7724H23.6963L26.4981 0.264893Z" fill="#004A89"/>
<path d="M13.1753 15.7577L20.2137 0.276367H15.4774L11.0988 10.8525L10.6307 9.25566C9.21031 6.62901 7.07239 4.40946 4.43872 2.82724L8.44087 15.7605L13.1753 15.7577Z" fill="#004A89"/>
<path d="M39.2633 10.7022C39.2791 8.94047 38.0807 7.59795 35.5066 6.48928C33.9406 5.77377 32.9856 5.29488 32.9974 4.56819C32.9974 3.92628 33.8066 3.23593 35.5598 3.23593C36.7063 3.21174 37.8456 3.4142 38.9046 3.83033L39.3087 4.00641L39.9167 0.646861C38.6307 0.209768 37.2732 -0.00911958 35.9067 0.000291022C31.4896 0.000291022 28.3794 2.10024 28.3498 5.11602C28.3232 7.34547 30.5731 8.58644 32.2702 9.32897C34.0106 10.0864 34.593 10.5718 34.5821 11.2501C34.5703 12.2907 33.1965 12.7631 31.9104 12.7631C30.4583 12.8037 29.0161 12.525 27.6974 11.9488L27.1258 11.701L26.4971 15.177C28.091 15.7327 29.778 16.0114 31.4768 15.9996C36.1728 15.9987 39.2278 13.9239 39.2633 10.7022Z" fill="#004A89"/>
<path d="M44.5799 13.448L50.3057 13.4536C50.4417 13.994 50.8497 15.7771 50.8497 15.7771H54.9996L51.3789 0.281844H47.9296C47.4443 0.222396 46.9517 0.315877 46.5283 0.547796C46.1048 0.779714 45.774 1.13715 45.5871 1.56475L38.9468 15.7771H43.6456C43.6456 15.7771 44.4055 13.8672 44.5799 13.448ZM47.6448 5.93794C47.6222 5.97986 48.0144 5.04074 48.2361 4.45752L48.5387 5.79444C48.5387 5.79444 49.3921 9.49871 49.5715 10.272H45.867C46.2355 9.38132 47.6409 5.93885 47.6409 5.93885L47.6448 5.93794Z" fill="#004A89"/>
</svg>
