<svg width="30" height="30" viewBox="0 0 30 30" fill="none" xmlns="http://www.w3.org/2000/svg">
<path d="M18.3326 0C17.8816 0 17.4905 0.156374 17.1604 0.469123L8.48928 8.68426H1.66737C1.21531 8.68426 0.825273 8.84064 0.495164 9.15339C0.165055 9.46614 0 9.83665 0 10.2639V19.7361C0 20.1633 0.165055 20.5339 0.495164 20.8466C0.825273 21.1594 1.21636 21.3157 1.66737 21.3157H8.48928L17.1604 29.5309C17.4905 29.8436 17.8806 30 18.3326 30C18.7847 30 19.1747 29.8436 19.5048 29.5309C19.8349 29.2181 20 28.8486 20 28.4203V1.57968C20 1.15239 19.8349 0.781873 19.5059 0.469123C19.1768 0.156374 18.7857 0 18.3337 0H18.3326Z" fill="#B3B3B3"/>
<path d="M28.04 18.515C28.742 17.434 29.093 16.266 29.093 15.01C29.093 13.754 28.742 12.582 28.04 11.492C27.338 10.402 26.41 9.634 25.253 9.188C25.088 9.106 24.881 9.064 24.634 9.064C24.205 9.064 23.833 9.217 23.519 9.522C23.205 9.829 23.048 10.203 23.048 10.649C23.048 10.996 23.147 11.289 23.346 11.528C23.545 11.767 23.783 11.974 24.064 12.147C24.344 12.32 24.625 12.51 24.906 12.717C25.187 12.924 25.426 13.216 25.624 13.596C25.822 13.976 25.921 14.447 25.921 15.008C25.921 15.569 25.822 16.04 25.624 16.42C25.426 16.8 25.187 17.093 24.906 17.299C24.625 17.505 24.344 17.696 24.064 17.869C23.783 18.042 23.544 18.249 23.346 18.488C23.148 18.727 23.048 19.021 23.048 19.367C23.048 19.813 23.206 20.188 23.519 20.494C23.833 20.798 24.204 20.953 24.634 20.953C24.881 20.953 25.088 20.912 25.253 20.829C26.409 20.366 27.338 19.594 28.04 18.512V18.515Z" fill="#B3B3B3"/>
</svg>
